<?xml version="1.0" encoding="UTF-8"?>
<svg width="1390px" height="1068px" viewBox="0 0 1390 1068" version="1.1" xmlns="http://www.w3.org/2000/svg" xmlns:xlink="http://www.w3.org/1999/xlink">
    <!-- Generator: Sketch 51 (57462) - http://www.bohemiancoding.com/sketch -->
    <title>Artboard</title>
    <desc>Created with Sketch.</desc>
    <defs></defs>
    <g id="Artboard" stroke="none" stroke-width="1" fill="none" fill-rule="evenodd">
        <g id="fondo_tu-casa-02">
            <path d="M1118.5,268.1 C1115.7,270.3 1111.9,272.1 1100.4,272.1 C1097.3,272.1 1094.7,272 1092.4,271.8 C1088.2,272.4 1084,273 1079.9,273.7 C1033.6,280.9 1005.7,266 958.9,269 C935.3,270.5 893.5,272 869.9,271.5 C845.8,271 821.9,268.7 797.8,268.3 C700.5,266.8 604.4,249.8 507.4,254.3 C339.8,262 171.5,246.6 4.1,258.7 L0.5,1059.9 L1389.3,1067.1 L1381.3,267.9 C1294,253.2 1205.9,256.7 1118.5,268.1 Z" id="Shape" fill="#4EB9A1" fill-rule="nonzero"></path>
            <g id="Group" transform="translate(833.000000, 0.000000)">
                <g transform="translate(0.000000, 4.000000)" id="Shape">
                    <path d="M211.8,80.2 C212.4,70.5 207.7,33.4 194.2,44.1 C186.3,50.4 183.9,78.3 185.5,88 C188.4,81.7 179.2,64.2 169.8,67.6 C157.6,72 158.7,108.2 157.8,118.5 C156.4,133.6 163.6,147.1 179.4,152.1 C195.3,157.1 198.3,163 210.3,150.1" fill="#A4F482" fill-rule="nonzero"></path>
                    <path d="M62.9,172.9 C62.9,172.9 46,179.2 49.6,188.8 C53.3,198.4 65.1,175 62.9,172.9 Z" stroke="#FE8B26" stroke-width="1.0907" fill="#D36C20"></path>
                    <path d="M112.2,240.8 C113.1,243 113.2,254.7 113.5,257.6 C113.4,257.6 113.2,257.6 113.1,257.6 C113.1,256.7 113.1,255.7 113.1,254.8 C113.1,252.7 112.2,242.8 112.2,240.8 Z" fill="#EE8B42"></path>
                    <path d="M143.7,242.8 C143.8,242.8 144,242.8 144.1,242.8 C144.1,243.1 144.1,243.3 144.1,243.6 C144.1,244.7 145,253.6 145,254.7 C144.1,254.2 144,244.1 143.7,242.8 Z" fill="#FFC9A3"></path>
                    <path d="M144.1,243.6 C145,244.2 145.1,254.3 145.4,255.5 C145.1,255.4 144.9,255.2 145,254.7 C145,253.7 144.1,244.7 144.1,243.6 Z" fill="#EE8B42"></path>
                    <path d="M130.8,95.7 C133.8,97.2 138.6,97.3 141.9,98.4 C141.5,101.3 141.8,103.8 140.9,105.9 L146.1,103.7 C146.4,103.7 146.5,104.1 146.7,104.2 L148,104.3 C148.1,103.8 148.6,103.8 149,103.9 L160.7,104.6 L161.3,95.6 C152.3,80.1 139.5,98.9 130.8,95.7 Z" fill="#E5AAAA"></path>
                    <path d="M54,186.3 C54.9,185.4 55.1,183.9 55.6,182.7 C56.7,181.5 57.2,179.7 58,178.3 C58.8,176.9 59.3,175 60.4,173.9 C61.4,173.9 61.8,174.6 62.4,175.1 C61.2,175.4 61.6,174 60.4,174.3 C58.2,178.6 56.3,183.2 53.9,187.2 C54,186.8 54,186.5 54,186.3 Z" fill="#EE8B42"></path>
                    <path d="M59.3,174.1 C54.7,170 50.9,160.3 42.8,163.6 C42.8,163.9 42.8,164.4 42.8,164.4 C42.8,164.4 42.2,164.4 41.9,164.4 C41.2,164.4 41,164.8 40.5,164.8 C35.5,164.5 34.7,168.2 34.7,173.3 C34.7,173.4 34.7,173.6 34.7,173.7 C33.4,179.2 37.9,182.5 43,183.4 C47.3,183.1 49.4,185.2 54,184.6 C54.7,185.4 54,185.1 54,186.2 C54.9,185.3 55.2,183.8 55.6,182.6 C56.2,180.9 56.7,179.1 58,178.2 C58.8,176.8 59.3,174.9 60.4,173.8 C61.4,173.8 61.8,174.5 62.4,175" fill="#FDC7A8"></path>
                    <path d="M55.6,182.6 C56.2,180.9 56.7,179.1 58,178.2 C57.2,179.6 56.7,181.4 55.6,182.6 Z" fill="#FFC9A3"></path>
                    <path d="M195.3,255 C194.6,250.9 194,243.9 193,242.4 C193.1,244.6 194.5,251.3 194.9,255.3 C195.1,255.3 195.2,255.2 195.3,255 Z" fill="#FFC9A3"></path>
                    <path d="M143,256.8 C143.9,257.4 143.2,259.6 143.4,260.8 C143.3,260.8 143.1,260.8 143,260.8 C143,259.5 143,258.1 143,256.8 Z" fill="#FFC9A3"></path>
                    <path d="M189,180 C189,180.3 189,180.5 189,180.7 C189,180.5 189,180.3 189,180 Z M188.9,181.1 C188.9,181.2 188.9,181.3 188.9,181.4 C188.9,181.2 188.9,181.1 188.9,181.1 Z M189,179.1 C189,179.2 189,179.2 189,179.3 C189,179.2 189,179.2 189,179.1 Z M189.8,174.7 C189.8,174.6 189.8,174.4 189.8,174.3 C189.8,174.4 189.8,174.6 189.8,174.7 Z M189.9,173.7 C189.9,173.6 189.9,173.5 189.9,173.3 C189.9,173.3 189.9,173.3 189.9,173.3 C189.9,173.5 189.9,173.6 189.9,173.7 Z" fill="#FE8B26" fill-rule="nonzero"></path>
                    <path d="M163.4,107.6 C159.3,106.9 140.9,103.8 138.3,107 C135.6,110.3 136,115.4 127.3,115.9 C118.7,116.4 94.4,119.5 94,126.4 C93.6,133.3 88.6,163.3 97.7,191.1 C97.7,191.1 63.8,168.6 60.9,173.4 C58,178.2 58,183.9 53.3,185.6 C48.5,187.3 48,190.7 54,192.3 C60,193.9 97.1,215.1 100.8,216.9 C104.5,218.7 112.3,222.6 112.3,222.6 C112.3,222.6 108.5,248.9 112.3,261.5 C116.1,274.1 146.5,277.7 161.1,274.1 C175.7,270.4 195.9,259.3 196.5,254.7 C197.1,250.2 198.3,211.8 196.3,203.1 C194.4,194.4 194.4,166.9 192.2,158.9 C192.2,158.9 211.8,198.4 213.4,198 C215,197.6 212.9,258.6 219.6,258.8 C226.4,259 235.2,258.4 235.2,258.4 C235.2,258.4 235.9,188.3 231.2,183.2 C226.4,178.1 217.3,134.4 197.1,126.7 C176.8,119 164,117.2 163.7,113.8 C163.5,110.5 165.1,108.6 163.4,107.6 Z" fill="#EC4A38" fill-rule="nonzero"></path>
                    <path d="M111.7,225.2 C116.3,230.5 124.1,225.1 127.9,217 C134.7,202.2 124.9,163.7 119.6,162.9 C114.3,162.2 97.9,209.5 111.7,225.2 Z" fill="#000000" fill-rule="nonzero" opacity="0.26"></path>
                    <path d="M196.3,255.4 C193.4,257.9 190.2,260.8 186.5,262.3 C182.4,264 174.8,269.9 169.9,269.8 C164.8,269.7 160.7,267.7 155.6,267.1 C151.5,266.6 153.5,258.3 149.8,256.7 C149.3,256.5 149.3,256.1 149.6,255.7 C149.4,255.3 149.1,255 148.9,254.7 L120.8,257.7 C104.6,257.4 78,235.6 53.5,236.1 C29,236.6 37.1,288.5 43.2,288 C49.3,287.5 69,295.5 67.2,288 C55.9,243.4 92.9,298.1 122.7,297.1 C131.4,296.8 161.3,293.1 161.3,293.1 C161.3,293.1 174.7,302.8 193.2,293.1 C208.1,285.1 199.9,264 196.3,255.4 Z" fill="#413C84" fill-rule="nonzero"></path>
                    <path d="M118.5,56.6 C124.6,55.5 127.7,59.6 127.7,64.1 C127.7,72.9 115.3,73.8 113,66.6 C111.3,61.5 114.7,57.3 118.5,56.6 Z" fill="#F0B495"></path>
                    <path d="M159,78.8 C160.1,73.3 166.1,72.7 165.1,65.2 L165.1,65 C164.3,63.5 163.7,62 162.3,61.1 C161.6,61 161.5,60.3 160.6,60.3 C159.3,59.8 157,60 155.6,60.3 C155,60.5 154.8,61 153.9,60.9 C151.7,62.2 151.2,60.3 148.8,61.4 C147.8,62 145.7,66.3 143.9,66.1 C139.7,66.5 138,63 138.6,59.4 L138.6,59.1 C139,55.3 140.9,52.9 141.9,49.7 C141.8,48.7 141.9,47.9 142.2,47.2 C141.8,45.5 141.5,43.6 140.8,42.2 L140.8,41.9 C140.1,40.9 139.5,39.8 139.1,38.6 L139.1,38.3 C138.5,37.6 138.1,36.7 138,35.5 C137.4,34 137.7,31.2 138.3,30 C137.3,24.6 132.5,23 128,21.1 C123.3,24.6 118.9,29.3 116.4,35.5 C114.4,40.2 112,47.1 108.4,49.8 C105.6,51.9 101.9,50.8 101.4,53.5 C100.8,56.8 104.4,59.1 105.3,61.8 C105.3,61.8 105.3,61.8 105.3,61.8 C105.6,62.4 105.8,63.3 105.6,64 C105.3,65.8 105.7,66.7 105.5,68 C105.7,71.3 105,74.7 103.4,77.4 C103.3,78.3 102.9,79.1 102.4,80 C102.4,80.2 102.3,80.4 102.3,80.5 C101.6,85 103.2,87.3 105.9,88.8 C107.3,89.1 108.9,89.4 110.5,89.5 L120.2,89.5 C123.5,89.3 125,91 126,93.1 L126,93.4 C126.3,96.2 127.4,96.6 128.5,97.8 C132.4,96.5 136.1,95.1 140.2,93.9 L140.8,93.9 C143,92.8 145.6,92.3 148.3,91.7 L148.6,91.7 C152.1,90.6 156,89.9 160.3,89.5 L161.4,89.5 C161.4,88.7 163.1,89.7 163.1,88.9 C161.5,86.4 159.4,84.4 158.9,80.9 C158.6,80.6 158.6,79.2 159,78.8 Z" fill="#F0B495"></path>
                    <path d="M193.9,125.6 C192.9,124.8 176.5,116.9 177,113.3 C177.6,109.7 180.2,105.8 174.3,105.3 C168.4,104.7 174.8,101.8 177,100.6 C179.2,99.4 182.3,88.3 163.1,89.5 C144,90.7 117,100.8 119.3,103.1 C132.7,116.8 102.1,117.8 98,121.6 C93.9,125.5 113.7,126.6 112.9,126.4 C99.5,122.1 192.8,125.6 192.8,125.6" fill="#EC4A38"></path>
                    <path d="M244.8,92.5 C242.2,84.4 242.6,88.7 237,86.6 C230.8,84.2 217.8,83.5 212.8,79.7 C200.8,70.5 221.4,24.7 194.5,23.4 C185.8,23 183.9,33.6 175.4,26.4 C169.7,21.5 168.3,12.5 161.6,7.4 C156,3.1 146.8,-1.4 139.4,0.8 C131.2,3.2 122.2,15.2 125.5,24.5 C131.9,24.6 135.6,32.7 137.2,39.6 C138.8,46.5 133.2,61.7 139.5,68.5 C150.6,69.6 145.1,62.5 150.6,62.5 C155.7,62.5 154.6,72.9 149.3,74.8 C143.7,68.7 142.3,75.1 139.2,79.7 C133.5,88.3 136.3,90.4 142.1,96.8 C148.6,103.9 147.7,105.5 148.1,116.3 C148.4,125.3 150.1,137.5 158.7,139.3 C162,140 166,135.3 170.6,137.7 C173.6,139.3 177.6,148.4 180,151.1 C187.3,159.4 194.4,166.5 205.9,165.7 C214.6,165 217.5,163.4 216,155.8 C214.8,149.5 208,147.9 209.2,140.8 C210.6,132.6 216.4,134.4 221.6,132.1 C231.4,127.8 238,121.8 241.9,110.9 C243.7,105.6 246.7,98.2 244.8,92.5 Z" fill="#C3C1C6" fill-rule="nonzero"></path>
                    <path d="M115.4,68.8 C117.2,74.3 126.7,73.6 126.7,66.9 C126.7,63.5 124.4,60.3 119.7,61.1 C116.7,61.6 114.1,64.8 115.4,68.8 Z" fill="#F0B495"></path>
                    <path d="M105.5,67 C105,67.7 104.3,68.3 104,69.1 C103.9,69.5 103.8,70.1 103.9,70.5 C104,70.8 104.4,71.3 104.4,71.5 C104.2,72.3 103.2,72.1 103.4,73.4 C103.5,74.2 104,74.9 103.8,75.9 C103.7,76.8 103,77.5 102.8,78.4 C102.5,79.3 102.4,80.2 102.3,81.2 C102.2,83.3 104,83.7 105.9,83.7 C113.5,83.7 115.4,73.2 112.7,67.6 C112,66.2 107.7,59.2 106.4,58.3 C103.8,56.6 106.8,65.1 105.5,67 Z" fill="#F0B495"></path>
                    <path d="M119.1,51.4 C119.9,52.4 120.9,51.6 121.5,50.9 C122.5,49.8 122.7,48.3 122.9,46.9 C123.1,45.6 123.7,42.7 121.3,43.6 C119.7,44.2 119.5,45.8 119.2,47.2 C119,48.6 118.1,50.2 119.1,51.4 Z" fill="#112F3F" fill-rule="nonzero"></path>
                    <g transform="translate(0.000000, 59.000000)" fill-rule="nonzero">
                        <path d="M48.6,25.2 C46.6,24.3 45.1,22.9 43.7,21.2 C43.4,16.6 42.8,4.7 43.3,2.5 C43.8,-0.2 50.3,6.8 53.5,12.7 C55.3,16 58.4,23.7 61.4,30.9 C57.5,28.4 53,27.3 48.6,25.2 Z" fill="#A05F2A"></path>
                        <path d="M137.1,229.5 C138.7,223.3 138.2,216.7 135.3,211 C133.4,207.3 131,203.9 130.9,199.5 C130.8,196.4 131.2,193.4 130.8,190.3 C130.5,187.5 130,184.6 129.4,181.8 C128.5,177.3 128.6,172.2 126.4,168 C124.7,164.7 121.9,162.2 118.7,160.4 C113.7,157.7 108.4,156.2 102.8,155.5 C96.7,154.7 90.5,154.6 84.5,153.5 C80.8,152.8 76.4,151.7 74.4,148.1 C72.2,144.1 72.2,139 71.9,134.5 C71.4,128 71.3,121.6 70.8,115.1 C70.4,109.1 70,102.9 68.3,97.1 C65.1,86.3 58.2,76.8 55.8,65.8 C52.9,52.6 55.4,36.7 49.3,24.5 C53.1,26.3 57.4,27.2 61,29.6 C61.4,29.9 61.8,30.2 62.2,30.5 C64.5,35.8 66.7,40.7 68.2,43.2 C72,49.1 74.7,74.9 78.4,80.3 C82.2,85.7 97.2,102.4 97.2,102.4 C99.9,106.2 110.1,117.5 118.7,128.2 C118.7,128.2 135.4,153.5 141.8,166.4 C148.3,179.3 149.3,185.2 154.2,189.5 C159,193.8 159.6,217.5 159,225 C158.5,232.5 155.2,239.5 160.1,236.8 C164.9,234.1 169.8,242.2 162.8,245.9 C155.8,249.7 136.4,240 134.3,238.4 C134.1,238.2 133.5,238 132.8,237.9 C134.8,235.5 136.3,232.7 137.1,229.5 Z" fill="#AD6C36"></path>
                        <path d="M2.6,53.4 C3.1,51.2 10.7,46.4 15,43.7 C19.3,41 20.4,37.8 20.9,32.9 C21.4,28.1 30.6,26.4 31.1,24.3 C31.6,22.1 19.3,-1 23.6,0.1 C27.9,1.2 45.1,21.1 45.1,21.1 C45.1,21.1 45.1,21 45.1,20.7 C45.7,21.3 46.2,21.9 46.9,22.4 C47.6,22.9 48.4,23.2 50.9,25.7 C55,33.1 56.3,43.8 56.7,52.4 C57,57.8 54.8,59.7 56,65 C57.4,71.5 60.3,77.4 63.1,83.4 C65.6,88.7 68.2,94.2 69.4,100 C70.8,106.5 71.2,113.2 71.5,119.7 C71.9,126.2 72,132.7 72.7,139.2 C73,142.5 73.4,146.3 75.3,149 C77.1,151.6 79.8,148.9 82.8,149.7 C88.4,151.1 94.2,151.3 100,151.9 C109.5,152.8 123.6,159.4 127.5,169.6 C128.4,171.8 128.8,174.2 129,176.6 C129.2,179.5 130,182.3 130.5,185.1 C131.1,188.6 131.7,192.2 131.5,195.7 C131.4,197.8 131.2,199.9 131.7,202 C132.4,205.8 134.9,209 136.5,212.4 C138.7,217.2 139.2,222.9 138,228 C137.1,231.9 135.5,235.1 133.3,237.6 C126,236 105,234 105,234 C105,234 99.1,237.8 95.3,240.5 C91.5,243.2 79.7,230.3 76.5,225.4 C73.3,220.6 80.8,215.7 80.8,215.7 C69.5,204.9 77.6,186.1 79.7,178.6 C81.8,171.1 61.4,160.8 61.4,163 C61.4,165.2 67.9,215.2 68.9,218.9 C70,222.7 60.3,229.4 60.3,229.4 C60.3,229.4 58.1,235.9 56,239.1 C53.8,242.3 41.5,238 38.8,235.3 C36.1,232.6 45.8,236.9 49.6,224 C53.4,211.1 42,148.9 38.8,143 C35.6,137.1 32.3,97.8 33.4,93 C34.5,88.2 32.3,69.3 31.2,66.1 C30.1,62.9 15.6,63.4 10.8,62.9 C5.9,62.6 2.1,55.6 2.6,53.4 Z" fill="#B7773A"></path>
                        <path d="M87.4,138 C93.4,138.2 99.4,139.8 104.9,142.1 C109.8,144.1 114.7,146.5 119,149.6 C123.5,152.8 127.6,156.7 130.7,161.3 C134,166.2 135.3,171.8 136.6,177.4 C137.2,179.9 137.8,182.4 139.2,184.6 C140.4,186.6 142.1,188.3 143.3,190.3 C145.6,194.1 149.1,201 145.5,205 C142.4,208.4 137.2,206.5 133.8,204.7 C133,204.3 132.2,203.9 131.5,203.4 C131.1,202.1 130.8,200.8 130.8,199.4 C130.7,196.3 131.1,193.3 130.7,190.2 C130.4,187.4 129.9,184.5 129.3,181.7 C128.4,177.2 128.5,172.1 126.3,167.9 C124.6,164.6 121.8,162.1 118.5,160.3 C113.5,157.6 108.2,156.1 102.6,155.4 C96.5,154.6 90.3,154.5 84.3,153.4 C80.6,152.7 76.2,151.6 74.2,148 C73.5,146.6 73,145.1 72.6,143.5 C73.3,143 74,142.4 74.6,141.9 C78.2,139 82.7,137.9 87.4,138 Z" fill="#EAE5D6"></path>
                        <path d="M83,166.1 C79.7,164.7 76.3,163.8 73,162.6 C69.6,161.4 65.2,159.7 63.3,156.4 C62.2,154.4 62.3,152.1 63.4,150.1 C64.8,147.6 66.6,146.3 69.1,145.1 C69.1,145.1 69.2,145 69.2,145 C70.5,144.9 71.8,144.1 73,143.2 C73.3,145.3 73.9,147.3 75.1,149 C76.9,151.6 79.6,148.9 82.6,149.7 C88.2,151.1 94,151.3 99.8,151.9 C109.3,152.8 123.4,159.4 127.3,169.6 C128.2,171.8 128.6,174.2 128.8,176.6 C129,179.5 129.8,182.3 130.3,185.1 C130.9,188.6 131.5,192.2 131.3,195.7 C131.2,197.8 131.1,199.9 131.5,202 C131.6,202.6 131.8,203.1 132,203.7 C129,202 126.2,200.1 123.5,198 C120.3,195.5 116.3,192.3 111.9,192.7 C109.9,192.9 108,193.6 106.3,194.5 C104.9,195.2 103.3,196.4 101.6,195.9 C99,195.2 96.6,193 94.8,191 C93.2,189.3 91.8,187.3 91,185 C89.6,181 88.9,176.2 89.5,172 C89.7,170.9 88.6,169.5 87.8,168.8 C86.2,167.7 84.6,166.8 83,166.1 Z" fill="#FCF7E4"></path>
                        <path d="M31.6,67.3 L31.6,68.5 C32,63.8 33.5,59.3 37.8,57 C42.7,54.4 43.5,55.4 46.8,60.2 C47.7,61.6 48.5,64.3 50.6,64.6 C53.1,64.9 53.2,62.3 54.8,60.8 C54.8,60.8 54.9,60.8 54.9,60.7 C56.6,67.5 58.5,74.3 61.1,80.9 C61.1,80.9 61,80.9 61,80.9 C57.8,81.5 57.4,83.8 55.2,86 C51.7,89.4 50.1,88.3 46.1,87.1 C44.9,90.8 42,91.1 38.3,90.6 C34.1,90 33.5,88.2 32.9,84.4 C32.5,81.4 32.9,78.2 32.5,75.1 C32,72.7 28.8,68.3 31.6,67.3 Z" fill="#FCF7E4"></path>
                        <path d="M30.4,75.9 C30.4,75.9 29.6,91.2 32.3,91.2 C35,91.2 74.4,79.7 78.3,80.1 C82.1,80.5 79.8,70.9 76,70.5 C72.1,70.2 38.4,80.9 30.4,75.9 Z" fill="#483D37"></path>
                        <path d="M2.1,54.7 C-0.5,53 0.5,48.2 4,48.7 C7.8,49.2 6.2,57.3 2.1,54.7 Z" fill="#483D37"></path>
                        <path d="M30.5,89.2 C28,87.9 27.6,83.3 27.7,80.9 C27.9,78.5 29.3,75.8 32.2,76.8 C34.2,77.5 34.9,80.2 35.2,82 C35.9,85.1 35,91.6 30.5,89.2 Z" fill="#F9EECA"></path>
                        <path d="M21.4,43.8 C22.2,42.5 21,38.7 19.1,40 C17,41.4 19.8,46.4 21.4,43.8 Z" fill="#38302C"></path>
                    </g>
                    <g transform="translate(26.000000, 116.000000)">
                        <path d="M36.9,56.9 C36.9,56.9 20,63.2 23.6,72.8 C27.3,82.4 39.1,59 36.9,56.9 Z" fill="#CE392E"></path>
                        <path d="M26.8,71.3 C27.3,70.7 28.2,70.3 28.6,69.8 C30.8,67.2 32.3,64 33.5,60.8 C29,56.6 16.7,44.7 8,48 C8,48.3 8,48.9 8,48.9 C8,48.9 7.5,48.9 7.2,48.9 C6.5,48.9 6.6,49.2 6.1,49.2 C1.1,48.9 0.6,52.5 0.6,57.6 L0.6,58 C-0.9,63.5 3.5,66.8 8.5,67.7 C12.4,67.5 23.1,71.4 26.8,71.3 Z" fill="#F0B495" fill-rule="nonzero"></path>
                        <path d="M86.3,106.7 C86.3,106.7 78.5,102.8 74.8,101 C71.1,99.2 34,78 28,76.4 C22,74.8 22.5,71.4 27.3,69.7 C32.1,68 32,62.3 34.9,57.5 C37.8,52.7 71.7,75.2 71.7,75.2 C62.6,47.5 59.5,20.7 62,14.3 C65.2,6.2 79.2,1.8 89.8,0.5 C92.7,15.6 94.7,32.5 96.1,47.4 C97.3,59.7 100.2,71.7 100.4,84.1 C100.6,83.9 101.7,109.6 86.3,106.7 Z" fill="#EC4A38" fill-rule="nonzero"></path>
                    </g>
                    <path d="M168.7,99.3 C181.3,108.8 177.5,124.9 183.1,138.3 C187.8,149.7 196.4,158.1 209.2,158.1 C196.1,158.3 186.9,137.5 183.7,127.1 C181.8,120.9 180.9,114.6 178.8,108.4 C178,106.1 172.2,95.5 168.5,99.6" fill="#F8F7F9"></path>
                    <path d="M181.9,65.5 C194.5,75 189.5,91.7 196.3,104.5 C215.6,141.4 219.3,122.1 235.3,109.4 C216.3,124.4 200.1,103.8 196.8,93.3 C194.9,87.1 194,80.8 191.9,74.6 C191.1,72.3 185.3,61.7 181.6,65.8" fill="#F8F7F9" opacity="0.6"></path>
                    <path d="M198.9,38.9 C206.7,37.5 205.2,50 205.2,54.5 C205.2,62.1 204.8,69 207.7,76.2 C213.5,90.9 224.3,97 239.7,96.7 C232.8,100 222.6,97.1 216.2,93.6 C210.5,90.5 207.7,85 205.2,79.1 C202.6,72.9 202.1,67.5 202.5,60.8 C202.8,54.7 203.9,49.4 201.4,43.9 C200.7,42.3 200.2,39.5 199.3,39" fill="#9D9CA0" opacity="0.55"></path>
                    <path d="M173,28.2 C168.2,21.7 161,14.3 154.1,10 C149.7,7.3 144.4,4.2 139.1,5.3 L140.5,5 C146.2,3.8 151.1,10 154.3,13.9 C158.2,18.6 162.2,23.1 166.4,27.4 C170.7,31.7 173.9,36.8 178.1,41.3 C181.3,44.7 192,54.4 197,50.5 C183,50.1 180.3,38.1 173,28.2 Z" fill="#D8D7DB"></path>
                    <path d="M189,91.7 C186.8,87.2 185.9,81.6 183.8,76.3 C181.3,69.9 177,62.3 172.2,57.2 C170.9,55.8 169.5,54.4 168,53.2 C171.4,57.4 173.8,62.4 175,67.7 C176.1,69.9 177.3,72.1 178.6,74.2 C181.2,78.6 182.7,83.6 185.1,88.1 C185.9,89.7 187.7,92.5 189.8,95 C189.5,93.9 189.2,92.8 189,91.7 Z" fill="#D8D7DB" fill-rule="nonzero" opacity="0.53"></path>
                    <path d="M142.6,91.5 C155.5,90.5 153.3,110.8 152,118.3 C151.3,122.2 150.9,125.7 153.2,129.2 C155.4,132.6 158.5,133 161.2,134.8 C152.5,136.1 154.8,115.4 155.2,110.9 C155.6,106 156.3,100.7 154.1,96.1 C151.4,90.4 148.2,90.8 142.9,91.1" fill="#9D9CA0" opacity="0.21"></path>
                    <g opacity="0.53" transform="translate(118.000000, 31.000000)" fill="#D8D7DB" fill-rule="nonzero">
                        <g>
                            <path d="M2,1.2 C3.7,0.6 6,0.9 7.3,2.2 C8.1,3 8.5,3.9 9.6,4.4 C10.1,4.6 11.7,3.8 11.6,3.7 C10.6,3.2 10.1,2.3 9.4,1.5 C8.7,0.8 7.9,0.5 6.9,0.3 C5,-0.1 3.1,0.2 1.3,0.8 C-0.1,1.3 1.2,1.4 2,1.2 Z"></path>
                        </g>
                    </g>
                    <g opacity="0.53" transform="translate(149.000000, 64.000000)" fill="#B2B1B5" fill-rule="nonzero">
                        <g>
                            <path d="M0.8,0.7 C0.3,1.5 0.3,2.4 0.3,3.3 C0.3,3.8 0.4,4.2 0.4,4.7 C0.4,4.9 0.4,5.1 0.4,5.4 C0.4,5.6 0.2,5.9 0.4,5.7 C-0.6,6.4 0.9,6.6 1.5,6.2 C3.2,5.1 1.5,2.3 2.5,0.7 C2.9,0.1 1.2,0.3 0.8,0.7 Z"></path>
                        </g>
                    </g>
                    <g opacity="0.53" transform="translate(121.000000, 27.000000)" fill="#B2B1B5" fill-rule="nonzero">
                        <g>
                            <path d="M10.2,3.1 C7.8,0.5 4.7,-0.4 1.3,0.6 C0.7,0.8 0.8,1.1 1.4,0.9 C4.5,0 7.1,1.2 9.3,3.5 C9.4,3.7 10.4,3.3 10.2,3.1 Z"></path>
                        </g>
                    </g>
                    <path d="M135.2,306.5 C161,309.6 161.6,272.6 135.4,296.4 C139.4,291.8 143.1,277.4 131.7,277.1 C119.4,276.8 123.4,289 123.4,294.9 C124.1,289.5 122.5,274.9 111.5,275.5 C102.6,276 102,290 106.5,293.4 C106.6,289.5 102.4,278.3 94.8,279.7 C83.8,281.8 90.7,297.7 99.2,299 C94.6,297.3 84.5,296 80.6,299.3 C73.2,305.5 88.1,307.2 93.7,308.8 C83.5,307.2 66.8,308.3 80.9,315.5 C91.2,320.8 113.8,320.6 125.9,319.5 C130.6,319.1 144,317.9 145.8,313.6 C148.5,307.3 133.5,303.4 127,305.6" fill="#4EB9A1" fill-rule="nonzero"></path>
                    <path d="M153.2,76.5 C153,75.4 152.5,73.9 151.8,72.8 C151.8,72.9 151.7,72.9 151.6,72.9 C151.6,72.9 151.6,72.9 151.6,72.9 C151.9,73.6 152.1,74.3 152.3,75 C152.6,76 153,77.1 152.8,78.2 C152.5,79.6 151.6,81.2 150.3,81.9 C149.8,82.2 149.1,82.3 148.5,82.4 C147.8,82.6 147.1,82.3 146.4,82 C145.9,81.8 145.6,81.7 145.2,81.3 C144.9,80.9 144.7,80.6 144.5,80.1 C144.2,79.4 144.1,78.7 144.1,77.9 C144.2,75.9 145.2,73.8 147.1,73 C147.8,72.7 148.3,72.5 148.8,71.9 C149.5,71 148.7,70.2 147.7,70.5 C147.1,70.7 146.6,71.1 146.1,71.6 C145.9,71.8 145.7,71.9 145.6,72.1 C144.1,73.4 142.9,75.1 142.7,77.2 C142.6,79 142.9,81.5 144.5,82.5 C146,83.4 147.8,83.3 149.4,82.9 C151.1,82.5 152.1,81.7 152.7,80 C153.4,78.9 153.5,77.9 153.2,76.5 Z" fill="#F9D987"></path>
                    <path d="M250.1,264.2 C246,262.8 244.2,262.2 240.4,261.1 C237.5,260.3 234.5,259.2 234.4,256.9 C230.3,258.7 224.6,258.8 220.9,257.5 C220.9,257.5 220.8,257.5 220.8,257.5 C218.4,258.8 213.6,263 212.5,266.4 C211.4,269.7 214.6,270.4 218.2,267.5 C234.3,275.6 234.9,275 236.9,275.2 C238.3,275.3 243.8,276.3 244.3,274 C244.6,272.4 242,271.4 240.7,271.4 C243.5,271.3 246.7,273.2 249.7,272.2 C253.7,270.9 250.6,269.1 248.2,268.2 C249.8,268.3 253.4,269.7 254.5,267.9 C256.1,265.2 251.6,264.7 250.1,264.2 Z" fill="#F0B495" fill-rule="nonzero"></path>
                    <path d="M126.6,199.5 C126.6,199.5 126.6,209.5 124.9,213.5 C124.9,213.5 124.9,213.5 124.9,213.5 C125,213.5 125.1,213.6 125.1,213.7 C125.1,213.8 125.1,213.8 125.2,213.8 C126.1,214.6 126.6,215.2 127.3,216 C129.2,215 130.2,205.1 130.2,205.1 L126.6,199.5 Z" fill="#000000" fill-rule="nonzero" opacity="0.26"></path>
                </g>
                <path d="M201.2,27.4 C200.8,27.2 200.4,27 200,26.9 C199.6,26.8 199.2,26.6 198.8,26.4 L197.5,26.1 L196.9,26 L196.2,25.9 C194.4,25.6 192.7,25.7 191.1,26.2 C192.8,25.6 194.7,25.6 196.6,25.9 C198.4,26.2 200.3,26.7 201.9,27.7 C203.5,28.7 204.8,30 205.8,31.6 C206.8,33.2 207.4,35 207.9,36.9 C208.8,40.6 209,44.5 208.9,48.4 C208.9,52.3 208.6,56.2 208.4,60.1 C208.2,64 208,68 208.4,72 C208.6,74 208.9,76 209.7,77.9 C210.1,78.8 210.6,79.8 211.2,80.6 C211.9,81.4 212.7,82.1 213.6,82.6 C215.4,83.6 217.3,84.3 219.2,84.8 C221.1,85.3 223,85.7 225,86.1 C228.8,86.9 232.7,87.5 236.4,88.7 C237.3,89 238.3,89.4 239.3,89.5 C239.8,89.6 240.3,89.6 240.8,89.6 C241.3,89.6 241.8,89.6 242,89.7 C242.5,89.9 243,90.9 243.3,91.7 C243.6,92.6 243.9,93.5 244.3,94.4 C245.4,98 244.6,101.9 243.6,105.5 C243.1,107.3 242.4,109.1 241.8,111 C241.2,112.8 240.5,114.6 239.7,116.3 C238.1,119.7 235.9,122.9 233.2,125.5 C231.9,126.8 230.4,128 228.9,129 C227.4,130.1 225.7,131 224.1,131.8 C223.3,132.2 222.4,132.6 221.6,133 C220.8,133.4 219.9,133.7 219,133.9 C217.2,134.4 215.3,134.6 213.5,135.3 C211.6,136 210.1,137.7 209.4,139.5 C209.1,140.4 208.8,141.4 208.7,142.3 C208.6,143.3 208.5,144.3 208.7,145.3 C208.8,146.3 209.2,147.2 209.7,148.1 C210.2,149 210.7,149.7 211.3,150.5 C212.5,151.9 213.7,153.3 214.5,154.8 C214.9,155.5 215.3,156.5 215.5,157.7 C215.7,158.9 215.9,160.2 215.8,161.5 C215.7,162.7 215.2,163.9 214.4,164.5 C213.6,165.2 212.6,165.5 211.7,165.8 C210,166.3 208.2,166.4 206.4,166.6 C204.6,166.7 202.7,166.8 200.9,166.4 C197.2,165.9 193.7,164.2 190.6,161.9 C187.5,159.6 184.7,156.7 182,153.7 C181.3,152.9 180.6,152.2 180.1,151.4 C179.5,150.6 179,149.7 178.5,148.9 C177.5,147.2 176.5,145.4 175.4,143.6 C174.9,142.7 174.3,141.9 173.6,141 C173,140.2 172.3,139.3 171.2,138.7 C170.2,138.1 169.1,137.8 167.9,137.8 C166.8,137.8 165.7,138.1 164.7,138.4 C163.7,138.8 162.8,139.2 161.9,139.5 C161,139.9 160.1,140.1 159.3,140 C157.6,139.7 155.8,138.8 154.6,137.5 C153.3,136.2 152.4,134.5 151.6,132.8 C150.9,131.1 150.4,129.2 150,127.4 C149.3,123.7 149,120 148.9,116.4 C148.8,114.6 148.8,112.8 148.7,111.1 C148.6,109.4 148.5,107.7 148,106.2 C147.6,104.6 146.8,103.3 146.1,102.1 C145.3,100.9 144.5,100 143.7,99.1 C142.2,97.4 140.9,96.1 140.1,95.2 C139.3,94.3 138.8,93.8 138.8,93.8 C137.6,92.4 136.8,90.9 136.7,90.1 C136.6,89.7 136.6,89.5 136.6,89.6 C136.6,89.7 136.6,89.8 136.7,90 C136.7,90.2 136.8,90.5 137,90.9 C137.6,92.5 139.2,94.4 141,96.4 C142.8,98.4 144.9,100.6 146.3,102.9 C147,104.1 147.5,105.4 147.8,106.5 C148.1,107.7 148.2,108.8 148.2,109.7 C148.3,110.6 148.3,111.4 148.3,111.9 C148.3,112.4 148.3,112.7 148.3,112.7 C148.3,112.5 148.3,111.8 148.2,110.4 C148.1,109 148,107.2 147.4,105.4 C147.4,105.4 147.2,104.7 146.6,103.8 C146.1,102.8 145.2,101.6 144.2,100.4 C142.1,98 139.5,95.4 138.4,94 C138.1,93.6 137.7,93.1 137.1,92.3 C136.6,91.5 136.1,90.4 136,89.1 C135.9,87.8 136.3,86.4 136.9,85 C137.5,83.6 138.4,82.3 139.2,80.9 C140.1,79.6 140.8,78.1 141.5,76.8 C141.9,76.1 142.3,75.5 142.8,75 C143.2,74.4 143.8,74 144.4,73.8 C144.6,73.8 144.7,73.7 144.9,73.7 C145.1,73.7 145.2,73.7 145.4,73.7 C145.7,73.7 146,73.8 146.3,73.9 C146.8,74.1 147.3,74.4 147.7,74.7 C148.5,75.3 148.9,75.9 149.3,76.2 C151.1,78.2 151.2,78.2 150,76.9 C149.7,76.6 149.4,76.2 148.9,75.7 C148.5,75.2 147.9,74.7 147.2,74.2 C146.5,73.7 145.5,73.3 144.5,73.6 C143.5,73.9 142.7,74.8 142.1,75.7 C140.9,77.5 139.9,79.6 138.5,81.6 C138.2,82.1 137.8,82.6 137.5,83.2 C137.2,83.7 136.9,84.3 136.6,84.9 C136.1,86.1 135.6,87.3 135.6,88.6 C135.5,89.9 135.9,91.2 136.6,92.3 C137.2,93.4 138,94.3 138.7,95.2 C140.2,96.9 141.6,98.4 142.8,99.8 C147.2,105.4 142.8,99.8 142.7,99.9 C145.1,102.6 146.5,104.9 146.9,107.5 C147.4,110.1 147.3,112.8 147.4,116.5 C147.4,116.5 147.4,117.9 147.5,120.1 C147.6,122.3 147.9,125.4 148.6,128.8 C149,130.5 149.5,132.2 150.2,134 C151,135.7 152,137.4 153.3,138.7 C154.6,140 156.3,141 158,141.4 C158.4,141.5 158.9,141.6 159.4,141.6 C159.9,141.6 160.3,141.5 160.7,141.4 C161.5,141.2 162.2,140.9 162.8,140.6 C162.8,140.6 163,140.5 163.5,140.3 C164,140.1 164.7,139.8 165.7,139.5 C166.7,139.2 168.1,139 169.7,139.6 C171.2,140.1 172.5,142.1 174,144.3 C174.9,145.8 175.4,146.6 175.6,147 C175.8,147.4 175.8,147.4 175.8,147.4 C175.8,147.4 175.8,147.4 175.8,147.4 C176.3,148.2 176.9,149.2 177.5,150.2 C177.8,150.7 178.2,151.3 178.6,151.9 C179,152.5 179.5,153.1 179.9,153.5 C181.7,155.5 183.6,157.5 184.9,158.8 C184.9,158.8 184.9,158.8 184.9,158.8 C187.5,161.3 190.4,163.7 193.7,165.4 C197,167.1 200.8,168 204.5,167.8 C204.5,167.8 204.5,167.8 204.5,167.8 C206.4,167.8 208.2,167.5 209.6,167.3 C211,167.1 211.9,166.8 211.9,166.8 C211.9,166.8 211.9,166.8 211.9,166.8 C212.8,166.6 214,166.1 215.1,165.3 C216.2,164.4 216.8,163 217,161.8 C217.2,160.6 217,159.5 217,158.7 C217,158.3 216.9,158 216.9,157.8 C216.9,157.6 216.9,157.5 216.9,157.5 C216.9,157.5 216.9,157.5 216.9,157.5 C216.8,156.6 216.5,155.6 216.1,154.8 C215.7,153.9 215.2,153.2 214.7,152.4 C213.7,151 212.5,149.8 211.6,148.5 C210.7,147.2 210.1,145.9 209.9,144.5 C209.7,143.1 210,141.7 210.4,140.3 C210.8,139 211.5,137.8 212.5,137.1 C213.5,136.3 214.8,135.9 216.1,135.6 C217.4,135.3 218.8,135.1 220.2,134.7 C220.9,134.5 221.6,134.2 222.2,134 C222.8,133.7 223.5,133.4 224.1,133.1 C227.4,131.5 230.7,129.5 233.6,126.8 C236.5,124.1 238.9,120.9 240.7,117.2 C241.2,116.3 241.6,115.3 242,114.4 C242.4,113.4 242.7,112.5 243.1,111.5 C243.8,109.6 244.5,107.6 245.1,105.6 C245.7,103.6 246.2,101.5 246.3,99.4 C246.4,98.3 246.4,97.2 246.3,96.1 C246.2,95 245.9,93.9 245.5,92.9 C245.2,91.9 244.8,90.9 244.3,89.9 C244.1,89.4 243.8,88.8 243.1,88.3 C242.8,88.1 242.3,88 242,87.9 C241.7,87.9 241.4,87.9 241.1,87.9 C240.1,87.9 239.2,87.8 238.2,87.5 C237.3,87.2 236.2,86.8 235.2,86.5 C231,85.4 226.8,84.8 222.8,83.9 C220.8,83.4 218.7,82.9 216.8,82.2 C214.9,81.5 213.1,80.5 212.1,78.9 C211,77.3 210.4,75.4 210.1,73.4 C209.8,71.4 209.6,69.4 209.6,67.4 C209.6,63.8 209.7,60.2 209.6,63.8 C209.7,60.2 209.9,56.6 210.1,52.9 C210.2,49.3 210.2,48.3 210.2,47.4 C210.2,46.5 210.2,45.6 210,41.9 C209.9,40.1 209.6,38.2 209.2,36.4 C209.1,35.9 209,35.5 208.8,35.1 C208.7,34.7 208.6,34.2 208.4,33.8 L207.9,32.5 L207.3,31.2 C207.1,30.8 206.8,30.4 206.6,30 C206.3,29.6 206.1,29.2 205.7,28.9 L204.7,27.8 L203.6,26.9 C202.1,25.8 200.3,25 198.5,24.6 C198,24.5 197.6,24.4 197.1,24.3 L195.7,24.2 C195.2,24.1 194.8,24.1 194.3,24.1 C193.8,24.1 193.3,24.1 192.9,24.2 C191,24.5 189.2,25.3 187.7,26.4 C186.2,27.4 184.7,28.6 183.2,29.2 C181.6,29.9 180,29.6 178.5,28.8 C177,28 175.6,26.8 174.5,25.5 C173.4,24.2 172.4,22.6 171.5,21.1 C169.7,18 168.2,14.6 165.9,11.7 C164.8,10.2 163.4,8.9 161.9,7.8 C160.4,6.7 158.9,5.7 157.3,4.8 C154.1,3 150.6,1.6 146.9,1.1 C145.1,0.8 143.2,0.8 141.3,1.1 C139.4,1.4 137.7,2.2 136.1,3.1 C132.9,5 130.3,7.8 128.3,10.9 C126.4,14 124.9,17.6 124.9,21.4 L124.9,22.1 L125,22.8 C125.1,23.3 125.1,23.7 125.2,24.2 L125.6,25.8 L125.7,26.1 C125.7,26.1 125.7,26.2 125.7,26.2 L125.8,26.2 L126.4,26.3 L127.1,26.4 C128.8,26.7 130.3,27.6 131.5,28.8 C133.9,31.3 135.4,34.7 136.5,38.1 C136.8,39 137,39.8 137.2,40.7 C137.4,41.6 137.5,42.4 137.5,43.3 C137.6,45.1 137.4,46.9 137.3,48.7 C137,52.3 136.5,55.9 136.5,59.6 C136.5,61.4 136.7,63.3 137.1,65.1 C137.6,66.9 138.4,68.7 139.7,70.1 C138.4,68.6 137.7,66.9 137.2,65.2 C136.8,63.5 136.6,61.8 136.6,60.1 C136.5,56.8 136.9,53.6 137.2,50.4 C137.5,47.3 137.9,44.1 137.4,41 C136.7,37.9 135.6,34.6 133.8,31.6 C133.8,31.6 133.8,31.6 133.6,31.2 C133.4,30.8 132.9,30 131.7,28.8 C130.8,27.9 129.7,27.1 128.5,26.7 C128.2,26.6 127.9,26.5 127.6,26.4 C127.4,26.3 127.3,26.3 127.1,26.3 L126.5,26.2 C126.2,26.1 125.9,26.3 125.9,25.9 L125.7,25.2 L125.4,24.1 C124.8,21.2 125.3,18.3 126.3,15.6 C127.3,12.9 128.8,10.4 130.6,8.3 C132.4,6.2 134.5,4.3 136.8,3 C139.1,1.6 141.8,1 144.2,1 C146.7,1 149,1.5 151,2.1 C155.1,3.4 158.3,5.3 160.6,6.8 C162.1,7.8 163.7,8.9 165.4,11 C166.3,12 167.2,13.4 168.2,15 C169.2,16.7 170.2,18.7 171.6,21.1 C169.8,18 168.3,14.6 166,11.7 C166,11.7 166,11.7 166,11.7 C168.3,14.6 169.9,18.1 171.9,21.6 C172.9,23.3 174,25 175.4,26.4 C176.8,27.8 178.4,29.1 180.3,29.6 C182.2,30.1 184.2,29.3 185.8,28.2 C187.5,27.1 189.1,25.8 191,25.1 C192.9,24.3 195,24.2 196.9,24.5 C197.9,24.5 198.8,24.9 199.7,25 C200.2,25.1 200.6,25.3 201,25.5 C201.4,25.7 201.9,25.8 202.3,26.1 C202.3,26.1 202.3,26.1 202.3,26.1 C204.5,27.2 206.3,29.1 207.4,31.2 C207.8,32 207.9,32.2 207.7,31.8 C207.6,31.6 207.4,31.3 207.2,30.8 C206.9,30.4 206.5,29.9 206.1,29.2 C205.1,28 203.6,26.6 201.5,25.7 C199.4,24.7 196.7,24.3 193.9,24.4 C192.5,24.6 191.1,25 189.7,25.8 C188.4,26.5 187.2,27.5 185.9,28.3 C184.6,29.1 183.2,29.9 181.6,29.9 C180,29.9 178.6,29.1 177.4,28.2 C174.9,26.4 173.1,23.9 171.7,21.4 C170.3,19 169.1,16.6 167.9,14.7 C167.9,14.7 167.9,14.7 167.8,14.7 C169.1,16.8 170.1,18.9 171.3,21 C170,18.6 168.8,16.2 167.4,14 C166,11.8 164.3,9.8 162.3,8.2 C158.2,5.1 153.7,2.8 148.9,1.6 C146.5,1.1 143.9,0.9 141.5,1.3 C139,1.8 136.8,3 134.7,4.6 C132.7,6.2 130.9,8.1 129.4,10.2 C127.9,12.4 126.7,14.8 126.1,17.4 C126.5,15.6 127.5,13.1 129,10.8 C130.5,8.5 132.3,6.5 133.7,5.3 C133.7,5.3 133.7,5.3 134.1,5 C134.3,4.9 134.6,4.7 135,4.4 C135.2,4.2 135.4,4.1 135.7,3.9 C136,3.7 136.3,3.5 136.7,3.3 C133.6,5.2 130.8,8 128.8,11.4 C127.7,13.1 126.9,14.9 126.4,16.9 C125.8,18.8 125.6,20.9 125.9,22.9 C125.9,23.2 125.9,23.4 126,23.7 L126.2,24.4 L126.4,25.1 L126.4,25.3 C126.4,25.4 126.5,25.3 126.6,25.3 L127,25.3 C128,25.3 129,25.7 129.9,26.1 C131.7,27.1 133.1,28.6 134.2,30.3 C135.3,32 136.1,33.8 136.8,35.6 C137.4,37.4 138,39.2 138.3,41 C138.4,41.5 138.4,41.8 138.4,42 C138.4,42.2 138.4,42.3 138.4,42.3 C138.4,42.3 138.4,41.8 138.3,40.9 C138.2,40 137.8,38.7 137.3,36.9 C136.7,35.2 136,33 134.6,30.7 C133.9,29.5 133.1,28.5 132.2,27.6 C131.3,26.7 130.2,26 129.1,25.6 C128.8,25.5 128.5,25.4 128.2,25.3 C127.9,25.2 127.6,25.1 127.3,25.1 C127,25.1 126.8,25.1 126.6,25 L126.4,24.3 L126.2,23.5 C126.2,23.2 126.1,22.9 126.1,22.7 C126,22.1 126,21.6 126,21 C126.1,16.5 128,12.1 131.5,8 C129.2,10.7 126.7,14.7 126.2,19.2 C126.1,19.8 126.1,20.3 126.1,20.9 C126.1,21.2 126.1,21.5 126.1,21.7 L126.2,22.5 L126.3,23.3 C126.3,23.6 126.4,23.8 126.5,24.1 C126.7,24.6 126.6,25.2 127.2,25.1 C129.4,25.2 131.3,26.5 132.6,27.8 C133.8,29.2 132.7,27.7 131.2,26.6 C130.8,26.3 130.4,26.1 130.1,25.9 C129.7,25.7 129.4,25.6 129.2,25.5 C129,25.4 128.9,25.4 128.9,25.4 C129,25.4 129.2,25.5 129.6,25.7 C131.3,26.4 132.8,27.7 133.9,29.2 C135,30.7 135.9,32.3 136.6,34 C135.5,31.5 134.1,28.8 131.5,26.8 C131.2,26.5 130.9,26.3 130.5,26.1 C130.2,25.9 129.8,25.7 129.4,25.6 C129,25.4 128.6,25.3 128.2,25.2 C127.8,25.1 127.4,25.1 127,25 C126.7,25 126.7,24.8 126.6,24.4 C126.5,24 126.4,23.7 126.3,23.3 C126.2,22.5 126.1,21.8 126.1,21 C126.1,17.9 127.1,14.8 128.6,12.2 C130.1,9.6 132,7.3 134,5.5 C135.4,4.3 136.9,3.3 138.1,2.8 C138.4,2.7 138.7,2.5 138.9,2.4 C139.2,2.3 139.4,2.2 139.6,2.2 C140,2.1 140.2,2 140.2,2 C142.3,1.3 144.5,1.3 146.6,1.5 C148.7,1.7 150.7,2.3 152.6,3 C156.4,4.4 159.7,6.4 162.5,8.6 C165.3,10.8 167.1,13.7 168.6,16.5 C170.1,19.3 171.4,21.9 173,24.2 C173.5,24.9 174.6,26.5 176.6,28 C177.1,28.4 177.6,28.8 178.2,29.1 C178.5,29.3 178.8,29.5 179.1,29.6 C179.4,29.7 179.8,29.8 180.2,30 C181,30.2 181.8,30.3 182.6,30.1 C183,30.1 183.4,29.9 183.8,29.8 C184.2,29.7 184.6,29.5 184.9,29.3 C186.4,28.5 187.6,27.5 189,26.6 C190.4,25.7 191.8,25 193.4,24.8 C194.9,24.6 196.5,24.8 198,25 C198.7,26.4 200.1,26.8 201.2,27.4 Z" id="Shape" fill="#CBC9CD" fill-rule="nonzero"></path>
            </g>
        </g>
    </g>
</svg>