<svg width="1390" height="1065" viewBox="0 0 1390 1065" xmlns="http://www.w3.org/2000/svg"><title>Artboard</title><desc>Created with Sketch.</desc><g fill-rule="nonzero" fill="none"><g><path d="M1124.9 261.9c-11.8 1.2-22.6 4.2-27.2 5.2-3 .6-9.4 1.4-11.7 1.2-4.2.6-17.4-1.7-21.5-1-46.3 7.2-58.8-4.3-105.6-1.3-23.6 1.5-65.4 3-89 2.5-24.1-.5-48-2.8-72.1-3.2-97.3-1.5-193.4-18.5-290.4-14-167.6 7.7-335.9-7.7-503.3 4.4l-3.6 801.2 1388.8 7.2-8-799.2c-87.3-14.7-169-14.4-256.4-3z" id="Shape" fill="#4EB9A1"/><g id="Shape"><path d="M895.9 173.9s-16.9 6.3-13.3 15.9c3.7 9.6 15.5-13.8 13.3-15.9z" stroke="#FE8B26" stroke-width="1.091" fill="#D36C20"/><path d="M945.2 241.8c.9 2.2 1 13.9 1.3 16.8h-.4v-2.8c0-2.1-.9-12-.9-14z" fill="#EE8B42"/><path d="M976.7 243.8h.4v.8l.9 11.1c-.9-.5-1-10.6-1.3-11.9z" fill="#FFC9A3"/><path d="M977.1 244.6c.9.6 1 10.7 1.3 11.9-.3-.1-.5-.3-.4-.8 0-1-.9-10-.9-11.1z" fill="#EE8B42"/><path d="M963.8 96.7c3 1.5 7.8 1.6 11.1 2.7-.4 2.9-.1 5.4-1 7.5l5.2-2.2c.3 0 .4.4.6.5l1.3.1c.1-.5.6-.5 1-.4l11.7.7.6-9c-9-15.5-21.8 3.3-30.5.1z" fill="#E5AAAA"/><path d="M887 187.3c.9-.9 1.1-2.4 1.6-3.6 1.1-1.2 1.6-3 2.4-4.4.8-1.4 1.3-3.3 2.4-4.4 1 0 1.4.7 2 1.2l-2-.8c-2.2 4.3-4.1 8.9-6.5 12.9.1-.4.1-.7.1-.9z" fill="#EE8B42"/><path d="M892.3 175.1c-4.6-4.1-8.4-13.8-16.5-10.5v.8h-.9c-.7 0-.9.4-1.4.4-5-.3-5.8 3.4-5.8 8.5v.4c-1.3 5.5 3.2 8.8 8.3 9.7 4.3-.3 6.4 1.8 11 1.2.7.8 0 .5 0 1.6.9-.9 1.2-2.4 1.6-3.6.6-1.7 1.1-3.5 2.4-4.4.8-1.4 1.3-3.3 2.4-4.4 1 0 1.4.7 2 1.2" fill="#FDC7A8"/><path d="M888.6 183.6c.6-1.7 1.1-3.5 2.4-4.4-.8 1.4-1.3 3.2-2.4 4.4zM1028.3 256c-.7-4.1-1.3-11.1-2.3-12.6.1 2.2 1.5 8.9 1.9 12.9.2 0 .3-.1.4-.3zM976 257.8c.9.6.2 2.8.4 4h-.4v-4z" fill="#FFC9A3"/><path d="M1022 181v.7-.7zm-.1 1.1v.3-.3zm.1-2v.2-.2zm.8-4.4v-.4.4zm.1-1v-.4.4z" fill="#FE8B26"/><path d="M996.4 108.6c-4.1-.7-22.5-3.8-25.1-.6-2.7 3.3-2.3 8.4-11 8.9-8.6.5-32.9 3.6-33.3 10.5-.4 6.9-5.4 36.9 3.7 64.7 0 0-33.9-22.5-36.8-17.7-2.9 4.8-2.9 10.5-7.6 12.2-4.8 1.7-5.3 5.1.7 6.7 6 1.6 43.1 22.8 46.8 24.6 3.7 1.8 11.5 5.7 11.5 5.7s-3.8 26.3 0 38.9c3.8 12.6 34.2 16.2 48.8 12.6 14.6-3.7 34.8-14.8 35.4-19.4.6-4.5 1.8-42.9-.2-51.6-1.9-8.7-1.9-36.2-4.1-44.2 0 0 19.6 39.5 21.2 39.1 1.6-.4-.5 60.6 6.2 60.8 8.9 4.5 15.6-.4 15.6-.4s.7-70.1-4-75.2c-4.8-5.1-13.9-48.8-34.1-56.5-20.3-7.7-33.1-9.5-33.4-12.9-.2-3.3 1.4-5.2-.3-6.2z" fill="#EC4A38"/><path d="M944.7 226.2c4.6 5.3 12.4-.1 16.2-8.2 6.8-14.8-3-53.3-8.3-54.1-5.3-.7-21.7 46.6-7.9 62.3z" fill="#000" opacity=".26"/><path d="M1029.3 256.4c-2.9 2.5-6.1 5.4-9.8 6.9-4.1 1.7-11.7 7.6-16.6 7.5-5.1-.1-9.2-2.1-14.3-2.7-4.1-.5-2.1-8.8-5.8-10.4-.5-.2-.5-.6-.2-1-.2-.4-.5-.7-.7-1l-28.1 3c-16.2-.3-42.8-22.1-67.3-21.6-14 .3-17.3 17.3-16.5 31.7 7.5.8 15 1 22.5 1.5 2.5.2 4.9.8 6.9 1.8 6.2-5.4 33.4 26.8 56.3 26 8.7-.3 38.6-4 38.6-4s13.4 9.7 31.9 0c14.9-8 6.7-29.1 3.1-37.7z" fill="#413C84"/><path d="M992 79.8c1.1-5.5 7.1-6.1 6.1-13.6v-.2c-.8-1.5-1.4-3-2.8-3.9-.7-.1-.8-.8-1.7-.8-1.3-.5-3.6-.3-5 0-.6.2-.8.7-1.7.6-2.2 1.3-2.7-.6-5.1.5-1 .6-3.1 4.9-4.9 4.7-4.2.4-5.9-3.1-5.3-6.7v-.3c.4-3.8 2.3-6.2 3.3-9.4-.1-1 0-1.8.3-2.5-.4-1.7-.7-3.6-1.4-5v-.3c-.7-1-1.3-2.1-1.7-3.3v-.3c-.6-.7-1-1.6-1.1-2.8-.6-1.5-.3-4.3.3-5.5-1-5.4-5.8-7-10.3-8.9-4.7 3.5-9.1 8.2-11.6 14.4-2 4.7-4.4 11.6-8 14.3-2.8 2.1-6.5 1-7 3.7-.6 3.3 3 5.6 3.9 8.3.3.6.5 1.5.3 2.2-.3 1.8.1 2.7-.1 4 .2 3.3-.5 6.7-2.1 9.4-.1.9-.5 1.7-1 2.6 0 .2-.1.4-.1.5-.7 4.5.9 6.8 3.6 8.3 1.4.3 3 .6 4.6.7h9.7c3.3-.2 4.8 1.5 5.8 3.6v.3c.3 2.8 1.4 3.2 2.5 4.4 3.9-1.3 7.6-2.7 11.7-3.9h.6c2.2-1.1 4.8-1.6 7.5-2.2h.3c3.5-1.1 7.4-1.8 11.7-2.2h1.1l1.7-.6c-1.6-2.5-3.7-4.5-4.2-8-.3-.3-.3-1.7.1-2.1z" fill="#F0B495"/><path d="M1026.9 126.6c-1-.8-17.4-8.7-16.9-12.3.6-3.6 3.2-7.5-2.7-8-5.9-.6.5-3.5 2.7-4.7 2.2-1.2 5.3-12.3-13.9-11.1-19.1 1.2-46.1 11.3-43.8 13.6 13.4 13.7-17.2 14.7-21.3 18.5-4.1 3.9 15.7 5 14.9 4.8-13.4-4.3 79.9-.8 79.9-.8" fill="#EC4A38"/><path d="M1077.8 93.5c-2.6-8.1-2.2-3.8-7.8-5.9-6.2-2.4-19.2-3.1-24.2-6.9-12-9.2 8.6-55-18.3-56.3-8.7-.4-10.6 10.2-19.1 3-5.7-4.9-7.1-13.9-13.8-19-5.6-4.3-14.8-8.8-22.2-6.6-8.2 2.4-17.2 14.4-13.9 23.7 6.4.1 10.1 8.2 11.7 15.1 1.6 6.9-4 22.1 2.3 28.9 11.1 1.1 5.6-6 11.1-6 5.1 0 4 10.4-1.3 12.3-5.6-6.1-7 .3-10.1 4.9-5.7 8.6-2.9 10.7 2.9 17.1 6.5 7.1 5.6 8.7 6 19.5.3 9 2 21.2 10.6 23 3.3.7 7.3-4 11.9-1.6 3 1.6 7 10.7 9.4 13.4 7.3 8.3 14.4 15.4 25.9 14.6 8.7-.7 11.6-2.3 10.1-9.9-1.2-6.3-8-7.9-6.8-15 1.4-8.2 7.2-6.4 12.4-8.7 9.8-4.3 16.4-10.3 20.3-21.2 1.8-5.3 4.8-12.7 2.9-18.4z" fill="#C3C1C6"/><path d="M938.5 68c-.5.7-1.2 1.3-1.5 2.1-.1.4-.2 1-.1 1.4.1.3.5.8.5 1-.2.8-1.2.6-1 1.9.1.8.6 1.5.4 2.5-.1.9-.8 1.6-1 2.5-.3.9-.4 1.8-.5 2.8-.1 2.1 1.7 2.5 3.6 2.5 7.6 0 9.5-10.5 6.8-16.1-.7-1.4-5-8.4-6.3-9.3-2.6-1.7.4 6.8-.9 8.7z" fill="#F0B495"/><path d="M952.1 52.4c.8 1 1.8.2 2.4-.5 1-1.1 1.2-2.6 1.4-4 .2-1.3.8-4.2-1.6-3.3-1.6.6-1.8 2.2-2.1 3.6-.2 1.4-1.1 3-.1 4.2z" fill="#112F3F"/><path d="M881.6 85.2c-2-.9-3.5-2.3-4.9-4-.3-4.6-.9-16.5-.4-18.7.5-2.7 7 4.3 10.2 10.2 1.8 3.3 4.9 11 7.9 18.2-3.9-2.5-8.4-3.6-12.8-5.7z" fill="#A05F2A"/><path d="M970.1 289.5c1.6-6.2 1.1-12.8-1.8-18.5-1.9-3.7-4.3-7.1-4.4-11.5-.1-3.1.3-6.1-.1-9.2-.3-2.8-.8-5.7-1.4-8.5-.9-4.5-.8-9.6-3-13.8-1.7-3.3-4.5-5.8-7.7-7.6-5-2.7-10.3-4.2-15.9-4.9-6.1-.8-12.3-.9-18.3-2-3.7-.7-8.1-1.8-10.1-5.4-2.2-4-2.2-9.1-2.5-13.6l-1.1-19.4c-.4-6-.8-12.2-2.5-18-3.2-10.8-10.1-20.3-12.5-31.3-2.9-13.2-.4-29.1-6.5-41.3 3.8 1.8 8.1 2.7 11.7 5.1l1.2.9c2.3 5.3 4.5 10.2 6 12.7 3.8 5.9 6.5 31.7 10.2 37.1 3.8 5.4 18.8 22.1 18.8 22.1 2.7 3.8 12.9 15.1 21.5 25.8 0 0 16.7 25.3 23.1 38.2 6.5 12.9 7.5 18.8 12.4 23.1 4.8 4.3 5.4 28 4.8 35.5-.5 7.5-3.8 14.5 1.1 11.8 4.8-2.7 9.7 5.4 2.7 9.1-7 3.8-26.4-5.9-28.5-7.5-.2-.2-.8-.4-1.5-.5 2-2.4 3.5-5.2 4.3-8.4z" fill="#AD6C36"/><path d="M835.6 113.4c.5-2.2 8.1-7 12.4-9.7 4.3-2.7 5.4-5.9 5.9-10.8.5-4.8 9.7-6.5 10.2-8.6.5-2.2-11.8-25.3-7.5-24.2 4.3 1.1 21.5 21 21.5 21v-.4c.6.6 1.1 1.2 1.8 1.7s1.5.8 4 3.3c4.1 7.4 5.4 18.1 5.8 26.7.3 5.4-1.9 7.3-.7 12.6 1.4 6.5 4.3 12.4 7.1 18.4 2.5 5.3 5.1 10.8 6.3 16.6 1.4 6.5 1.8 13.2 2.1 19.7.4 6.5.5 13 1.2 19.5.3 3.3.7 7.1 2.6 9.8 1.8 2.6 4.5-.1 7.5.7 5.6 1.4 11.4 1.6 17.2 2.2 9.5.9 23.6 7.5 27.5 17.7.9 2.2 1.3 4.6 1.5 7 .2 2.9 1 5.7 1.5 8.5.6 3.5 1.2 7.1 1 10.6-.1 2.1-.3 4.2.2 6.3.7 3.8 3.2 7 4.8 10.4 2.2 4.8 2.7 10.5 1.5 15.6-.9 3.9-2.5 7.1-4.7 9.6-7.3-1.6-28.3-3.6-28.3-3.6s-5.9 3.8-9.7 6.5c-3.8 2.7-15.6-10.2-18.8-15.1-3.2-4.8 4.3-9.7 4.3-9.7-11.3-10.8-3.2-29.6-1.1-37.1s-18.3-17.8-18.3-15.6c0 2.2 6.5 52.2 7.5 55.9 1.1 3.8-8.6 10.5-8.6 10.5s-2.2 6.5-4.3 9.7c-2.2 3.2-14.5-1.1-17.2-3.8-2.7-2.7 7 1.6 10.8-11.3 3.8-12.9-7.6-75.1-10.8-81-3.2-5.9-6.5-45.2-5.4-50 1.1-4.8-1.1-23.7-2.2-26.9-1.1-3.2-15.6-2.7-20.4-3.2-4.9-.3-8.7-7.3-8.2-9.5z" fill="#B7773A"/><path d="M920.4 198c6 .2 12 1.8 17.5 4.1 4.9 2 9.8 4.4 14.1 7.5 4.5 3.2 8.6 7.1 11.7 11.7 3.3 4.9 4.6 10.5 5.9 16.1.6 2.5 1.2 5 2.6 7.2l4.1 5.7c2.3 3.8 5.8 10.7 2.2 14.7-3.1 3.4-8.3 1.5-11.7-.3-.8-.4-1.6-.8-2.3-1.3-.4-1.3-.7-2.6-.7-4-.1-3.1.3-6.1-.1-9.2-.3-2.8-.8-5.7-1.4-8.5-.9-4.5-.8-9.6-3-13.8-1.7-3.3-4.5-5.8-7.8-7.6-5-2.7-10.3-4.2-15.9-4.9-6.1-.8-12.3-.9-18.3-2-3.7-.7-8.1-1.8-10.1-5.4-.7-1.4-1.2-2.9-1.6-4.5.7-.5 1.4-1.1 2-1.6 3.6-2.9 8.1-4 12.8-3.9z" fill="#EAE5D6"/><path d="M916 226.1c-3.3-1.4-6.7-2.3-10-3.5-3.4-1.2-7.8-2.9-9.7-6.2-1.1-2-1-4.3.1-6.3 1.4-2.5 3.2-3.8 5.7-5l.1-.1c1.3-.1 2.6-.9 3.8-1.8.3 2.1.9 4.1 2.1 5.8 1.8 2.6 4.5-.1 7.5.7 5.6 1.4 11.4 1.6 17.2 2.2 9.5.9 23.6 7.5 27.5 17.7.9 2.2 1.3 4.6 1.5 7 .2 2.9 1 5.7 1.5 8.5.6 3.5 1.2 7.1 1 10.6-.1 2.1-.2 4.2.2 6.3.1.6.3 1.1.5 1.7-3-1.7-5.8-3.6-8.5-5.7-3.2-2.5-7.2-5.7-11.6-5.3-2 .2-3.9.9-5.6 1.8-1.4.7-3 1.9-4.7 1.4-2.6-.7-5-2.9-6.8-4.9-1.6-1.7-3-3.7-3.8-6-1.4-4-2.1-8.8-1.5-13 .2-1.1-.9-2.5-1.7-3.2-1.6-1.1-3.2-2-4.8-2.7zM864.6 127.3v1.2c.4-4.7 1.9-9.2 6.2-11.5 4.9-2.6 5.7-1.6 9 3.2.9 1.4 1.7 4.1 3.8 4.4 2.5.3 2.6-2.3 4.2-3.8 0 0 .1 0 .1-.1 1.7 6.8 3.6 13.6 6.2 20.2h-.1c-3.2.6-3.6 2.9-5.8 5.1-3.5 3.4-5.1 2.3-9.1 1.1-1.2 3.7-4.1 4-7.8 3.5-4.2-.6-4.8-2.4-5.4-6.2l-.4-9.3c-.5-2.4-3.7-6.8-.9-7.8z" fill="#FCF7E4"/><path d="M863.4 135.9s-.8 15.3 1.9 15.3 42.1-11.5 46-11.1c3.8.4 1.5-9.2-2.3-9.6-3.9-.3-37.6 10.4-45.6 5.4zM835.1 114.7c-2.6-1.7-1.6-6.5 1.9-6 3.8.5 2.2 8.6-1.9 6z" fill="#483D37"/><path d="M863.5 149.2c-2.5-1.3-2.9-5.9-2.8-8.3.2-2.4 1.6-5.1 4.5-4.1 2 .7 2.7 3.4 3 5.2.7 3.1-.2 9.6-4.7 7.2z" fill="#F9EECA"/><path d="M854.4 103.8c.8-1.3-.4-5.1-2.3-3.8-2.1 1.4.7 6.4 2.3 3.8z" fill="#38302C"/><path d="M895.9 173.9s-16.9 6.3-13.3 15.9c3.7 9.6 15.5-13.8 13.3-15.9z" fill="#CE392E"/><path d="M885.8 188.3c.5-.6 1.4-1 1.8-1.5 2.2-2.6 3.7-5.8 4.9-9-4.5-4.2-16.8-16.1-25.5-12.8v.9h-.8c-.7 0-.6.3-1.1.3-5-.3-5.5 3.3-5.5 8.4v.4c-1.5 5.5 2.9 8.8 7.9 9.7 3.9-.2 14.6 3.7 18.3 3.6z" fill="#F0B495"/><path d="M945.3 223.7s-7.8-3.9-11.5-5.7c-3.7-1.8-40.8-23-46.8-24.6-6-1.6-5.5-5-.7-6.7 4.8-1.7 4.7-7.4 7.6-12.2 2.9-4.8 36.8 17.7 36.8 17.7-9.1-27.7-12.2-54.5-9.7-60.9 3.2-8.1 17.2-12.5 27.8-13.8 2.9 15.1 4.9 32 6.3 46.9 1.2 12.3 4.1 24.3 4.3 36.7.2-.2 1.3 25.5-14.1 22.6z" fill="#EC4A38"/><path d="M1001.7 100.3c12.6 9.5 8.8 25.6 14.4 39 4.7 11.4 13.3 19.8 26.1 19.8-13.1.2-22.3-20.6-25.5-31-1.9-6.2-2.8-12.5-4.9-18.7-.8-2.3-6.6-12.9-10.3-8.8" fill="#F8F7F9"/><path d="M1014.9 66.5c12.6 9.5 7.6 26.2 14.4 39 19.3 36.9 23 17.6 39 4.9-19 15-35.2-5.6-38.5-16.1-1.9-6.2-2.8-12.5-4.9-18.7-.8-2.3-6.6-12.9-10.3-8.8" fill="#F8F7F9" opacity=".6"/><path d="M1031.9 39.9c7.8-1.4 6.3 11.1 6.3 15.6 0 7.6-.4 14.5 2.5 21.7 5.8 14.7 16.6 20.8 32 20.5-6.9 3.3-17.1.4-23.5-3.1-5.7-3.1-8.5-8.6-11-14.5-2.6-6.2-3.1-11.6-2.7-18.3.3-6.1 1.4-11.4-1.1-16.9-.7-1.6-1.2-4.4-2.1-4.9" fill="#9D9CA0" opacity=".55"/><path d="M1006 29.2c-4.8-6.5-12-13.9-18.9-18.2-4.4-2.7-9.7-5.8-15-4.7l1.4-.3c5.7-1.2 10.6 5 13.8 8.9 3.9 4.7 7.9 9.2 12.1 13.5 4.3 4.3 7.5 9.4 11.7 13.9 3.2 3.4 13.9 13.1 18.9 9.2-14-.4-16.7-12.4-24-22.3z" fill="#D8D7DB"/><path d="M1022 92.7c-2.2-4.5-3.1-10.1-5.2-15.4-2.5-6.4-6.8-14-11.6-19.1-1.3-1.4-2.7-2.8-4.2-4 3.4 4.2 5.8 9.2 7 14.5 1.1 2.2 2.3 4.4 3.6 6.5 2.6 4.4 4.1 9.4 6.5 13.9.8 1.6 2.6 4.4 4.7 6.9-.3-1.1-.6-2.2-.8-3.3z" fill="#D8D7DB" opacity=".53"/><path d="M975.6 92.5c12.9-1 10.7 19.3 9.4 26.8-.7 3.9-1.1 7.4 1.2 10.9 2.2 3.4 5.3 3.8 8 5.6-8.7 1.3-6.4-19.4-6-23.9.4-4.9 1.1-10.2-1.1-14.8-2.7-5.7-5.9-5.3-11.2-5" fill="#9D9CA0" opacity=".21"/><path d="M955.1 37.2c1.8-.2 4 .7 4.9 2.3.6 1 .8 1.9 1.7 2.7.4.3 2.2-.1 2.1-.2-.8-.7-1.1-1.7-1.6-2.7-.5-.8-1.2-1.3-2.1-1.8-1.7-.8-3.7-1-5.6-.9-1.4.2-.2.6.6.6z" opacity=".53" fill="#F8F7F9"/><path d="M982.8 65.7c-.5.8-.5 1.7-.5 2.6l.1 1.4v.7c0 .2-.2.5 0 .3-1 .7.5.9 1.1.5 1.7-1.1 0-3.9 1-5.5.4-.6-1.3-.4-1.7 0z" opacity=".53" fill="#B2B1B5"/><path d="M964.2 31.1c-2.4-2.6-5.5-3.5-8.9-2.5-.6.2-.5.5.1.3 3.1-.9 5.7.3 7.9 2.6.1.2 1.1-.2.9-.4z" opacity=".53" fill="#F49F90"/><path d="M968.2 307.5c25.8 3.1 26.4-33.9.2-10.1 4-4.6 7.7-19-3.7-19.3-12.3-.3-8.3 11.9-8.3 17.8.7-5.4-.9-20-11.9-19.4-8.9.5-9.5 14.5-5 17.9.1-3.9-4.1-15.1-11.7-13.7-11 2.1-4.1 18 4.4 19.3-4.6-1.7-14.7-3-18.6.3-7.4 6.2 7.5 7.9 13.1 9.5-10.2-1.6-26.9-.5-12.8 6.7 10.3 5.3 32.9 5.1 45 4 4.7-.4 18.1-1.6 19.9-5.9 2.7-6.3-12.3-10.2-18.8-8" fill="#4EB9A1"/><path d="M1083.1 265.2c-4.1-1.4-5.9-2-9.7-3.1-2.2-.6-4.2-1.4-5.2-2.7-2.3 1.2-5 1.8-7.6 1.8-2.6 0-5.7-.4-8.3-1.5-2.5 1.7-5.8 4.8-6.8 7.7-1.1 3.3 2.1 4 5.7 1.1 16.1 8.1 16.7 7.5 18.7 7.7 1.4.1 6.9 1.1 7.4-1.2.3-1.6-2.3-2.6-3.6-2.6 2.8-.1 6 1.8 9 .8 4-1.3.9-3.1-1.5-4 1.6.1 5.2 1.5 6.3-.3 1.6-2.7-2.9-3.2-4.4-3.7z" fill="#F0B495"/><path d="M957.3 219.5c.5-.4 1.1-.9 1.8-1.4 1.1-1.2 2.1-2.5 2.8-4 .9-3.2 1.4-7.9 1.4-7.9l-3.8-5.8s.2 8.7-1.1 13.2c0 .1-.1.4-.1.4l-1 2.6-.9 1.8c-.5 1-1.2 1.9-1.9 2.7.9-.5 1.8-1 2.8-1.6z" fill="#000" opacity=".26"/><path d="M986.2 77.5c-.2-1.1-.7-2.6-1.4-3.7 0 .1-.1.1-.2.1.3.7.5 1.4.7 2.1.3 1 .7 2.1.5 3.2-.3 1.4-1.2 3-2.5 3.7-.5.3-1.2.4-1.8.5-.7.2-1.4-.1-2.1-.4-.5-.2-.8-.3-1.2-.7-.3-.4-.5-.7-.7-1.2-.3-.7-.4-1.4-.4-2.2.1-2 1.1-4.1 3-4.9.7-.3 1.2-.5 1.7-1.1.7-.9-.1-1.7-1.1-1.4-.6.2-1.1.6-1.6 1.1-.2.2-.4.3-.5.5-1.5 1.3-2.7 3-2.9 5.1-.1 1.8.2 4.3 1.8 5.3 1.5.9 3.3.8 4.9.4 1.7-.4 2.7-1.2 3.3-2.9.7-1.1.8-2.1.5-3.5z" fill="#F9D987"/><g fill="#BDBBBF"><path d="M1023 26.4c1.6-.5 3.3-.6 5.1-.3l.7.1.6.1 1.3.3c.4.2.8.4 1.2.5.4.1.8.3 1.2.5-.4-.2-.8-.4-1.3-.6-1.1-.4-2.2-.7-3.3-.9-1.9-.3-3.8-.3-5.5.3zM968.6 90.2c0-.1 0-.1-.1-.2 0 .1 0 .2.1.3.1.7.8 2.1 1.8 3.3-.7-.9-1.2-1.8-1.5-2.5-.2-.4-.3-.7-.3-.9zM1003.9 22.2c.7 1.2 1.5 2.3 2.3 3.3l.3.3c.2.2.4.4.6.7l.2.2c.4.4.9.8 1.4 1.2-.5-.4-1-.8-1.4-1.3-1.4-1.4-2.5-3.1-3.5-4.8-2-3.5-3.6-7-5.9-9.9 2.3 2.9 3.8 6.3 5.6 9.4-1.4-2.4-2.4-4.4-3.4-6.1-1-1.6-1.9-3-2.8-4-1.7-2.1-3.3-3.2-4.8-4.2-.9-.6-1.9-1.2-3.1-1.9 1.5.9 2.9 1.8 4.4 2.9 1.5 1.1 2.9 2.4 4 3.9 1.5 1.9 2.6 4 3.8 6.1.6 1.2 1.3 2.4 2 3.6l.3.6zM1078.2 96.3c-.1-1.1-.4-2.2-.8-3.2-.3-1-.7-2-1.2-3-.2-.5-.5-1.1-1.2-1.6-.3-.2-.8-.3-1.1-.4h-.9c-1 0-1.9-.1-2.9-.4-.9-.3-2-.7-3-1-4.2-1.1-8.4-1.7-12.4-2.6-2-.5-4.1-1-6-1.7-1.9-.7-3.7-1.7-4.7-3.3-1.1-1.6-1.7-3.5-2-5.5-.3-2-.5-4-.5-6v-4.6c.1-3.3.3-6.6.5-9.9.1-3.6.1-4.6.1-5.5 0-.9 0-1.8-.2-5.5-.1-1.8-.4-3.7-.8-5.5-.1-.5-.2-.9-.4-1.3-.1-.4-.2-.9-.4-1.3l-.5-1.3-.6-1.3-.7-1.2c-.3-.4-.5-.8-.9-1.1l-1-1.1-1-.9-.2-.1c-.2-.2-.5-.3-.7-.4.1 0 .2.1.2.1l-.3-.2c-.3-.2-.5-.3-.8-.4l.3.2c.1.1.2.1.4.2l-1.1-.6.4.2c-1.1-.6-2.3-1-3.5-1.3l-1.4-.3-1.4-.1c-.5-.1-.9-.1-1.4-.1-.5 0-1 0-1.4.1-1.9.3-3.7 1.1-5.2 2.2-1.5 1-3 2.2-4.5 2.8-1.6.7-3.2.4-4.7-.4-.6-.3-1.1-.7-1.7-1.1 1 .9 2.2 1.6 3.5 1.9 1.9.5 3.9-.3 5.5-1.4 1.7-1.1 3.3-2.4 5.2-3.1 1.9-.8 4-.9 5.9-.6.7 0 1.4.2 2.1.4-1.6-.4-3.3-.5-5.1-.5-1.4.2-2.8.6-4.2 1.4-1.3.7-2.5 1.7-3.8 2.5-1.3.8-2.7 1.6-4.3 1.6-1.6 0-3-.8-4.2-1.7-.7-.5-1.4-1.1-2-1.7l-.2-.2c-.2-.2-.4-.4-.6-.7 0-.1-.1-.1-.2-.2l-.1-.2c-.9-1.1-1.6-2.2-2.3-3.3l-.6-.9-1.8-3.3c-.6-1.1-1.2-2.1-1.8-3.1h-.1l-.4-.7c-1.4-2.2-3.1-4.2-5.1-5.8-4.1-3.1-8.6-5.4-13.4-6.6-2.4-.5-5-.7-7.4-.3-2.3.5-4.3 1.5-6.2 2.8.1-.1.2-.1.4-.2.3-.2.6-.4 1-.6-3.1 1.9-5.9 4.7-7.9 8.1-1.1 1.7-1.9 3.5-2.4 5.5-.6 1.9-.8 4-.5 6 0 .3 0 .5.1.8l.4 1.4v.2c0 .1.1 0 .2 0h.4c1 0 2 .4 2.9.8 1.8 1 3.2 2.5 4.3 4.2 1.1 1.7 1.9 3.5 2.6 5.3.6 1.8 1.2 3.6 1.5 5.4v.1-.2c-.1-.9-.5-2.2-1-4-.6-1.7-1.3-3.9-2.7-6.2-.7-1.2-1.5-2.2-2.4-3.1-.9-.9-2-1.6-3.1-2l-.9-.3c-.2-.1-.3-.1-.5-.1.6.1 1.2.2 1.7.5.1 0 .1 0 .2.1.3.1.6.3.9.5.1.1.2.1.4.2-.1 0-.2-.1-.2-.1l.9.6-.1-.1c-.3-.3-.6-.5-1-.7-.3-.2-.6-.3-.9-.4-.2-.1-.3-.1-.4-.2h-.1c.1 0 .2.1.2.1-.4-.2-.8-.3-1.2-.4l-1.2-.2c-.3 0-.3-.2-.4-.6l-.3-1.1c-.1-.8-.2-1.5-.2-2.3v.7l.1.8.1.8c0 .3.1.5.2.8.2.4.1.9.5 1-.1 0-.2 0-.4-.1l-.2-.7-.2-.8c0-.3-.1-.6-.1-.8-.1-.6-.1-1.1-.1-1.7.1-3.6 1.4-7.2 3.7-10.6-1.5 2.3-2.9 5-3.4 8 .4-2.2 1.2-4.3 2.3-6.2 1.5-2.6 3.4-4.9 5.4-6.7 1.4-1.2 2.9-2.2 4.1-2.7.3-.1.6-.3.8-.4.3-.1.5-.2.7-.2.4-.1.6-.2.6-.2 2.1-.7 4.3-.7 6.4-.5 2.1.2 4.1.8 6 1.5 3.8 1.4 7.1 3.4 9.9 5.6 2.8 2.2 4.6 5.1 6.1 7.9 1.5 2.8 2.8 5.4 4.4 7.7.5.7 1.6 2.3 3.6 3.8.5.4 1 .8 1.6 1.1.3.2.6.4.9.5.3.1.7.2 1.1.4.8.2 1.6.3 2.4.1.4 0 .8-.2 1.2-.3.4-.1.8-.3 1.1-.5 1.5-.8 2.7-1.8 4.1-2.7 1.4-.9 2.8-1.6 4.4-1.8 1.5-.2 3.1 0 4.6.2.4.9 1.2 1.4 1.9 1.8.7.3 1.4.5 2 .9 1.6 1 2.9 2.3 3.9 3.9s1.6 3.4 2.1 5.3c.9 3.7 1.1 7.6 1 11.5 0 3.9-.3 7.8-.5 11.7-.2 3.9-.4 7.9 0 11.9.2 2 .5 4 1.3 5.9.4.9.9 1.9 1.5 2.7.7.8 1.5 1.5 2.4 2 1.8 1 3.7 1.7 5.6 2.2 1.9.5 3.8.9 5.8 1.3 3.8.8 7.7 1.4 11.4 2.6.9.3 1.9.7 2.9.8.5.1 1 .1 1.5.1s1 0 1.2.1c.5.2 1 1.2 1.3 2 .3.9.6 1.8 1 2.7 1.1 3.6.3 7.5-.7 11.1-.5 1.8-1.2 3.6-1.8 5.5-.6 1.8-1.3 3.6-2.1 5.3-1.6 3.4-3.8 6.6-6.5 9.2-1.3 1.3-2.8 2.5-4.3 3.5-1.5 1.1-3.2 2-4.8 2.8l-2.5 1.2c-.8.4-1.7.7-2.6.9-1.8.5-3.7.7-5.5 1.4-1.9.7-3.4 2.4-4.1 4.2-.3.9-.6 1.9-.7 2.8-.1 1-.2 2 0 3 .1 1 .5 1.9 1 2.8.5.9 1 1.6 1.6 2.4 1.2 1.4 2.4 2.8 3.2 4.3.4.7.8 1.7 1 2.9.2 1.2.4 2.5.3 3.8-.1 1.2-.6 2.4-1.4 3-.8.7-1.8 1-2.7 1.3-1.7.5-3.5.6-5.3.8-1.8.1-3.7.2-5.5-.2-3.7-.5-7.2-2.2-10.3-4.5-3.1-2.3-5.9-5.2-8.6-8.2-.7-.8-1.4-1.5-1.9-2.3-.6-.8-1.1-1.7-1.6-2.5-1-1.7-2-3.5-3.1-5.3-.5-.9-1.1-1.7-1.8-2.6-.6-.8-1.3-1.7-2.4-2.3-1-.6-2.1-.9-3.3-.9-1.1 0-2.2.3-3.2.6-1 .4-1.9.8-2.8 1.1-.9.4-1.8.6-2.6.5-1.7-.3-3.5-1.2-4.7-2.5-1.3-1.3-2.2-3-3-4.7-.7-1.7-1.2-3.6-1.6-5.4-.7-3.7-1-7.4-1.1-11-.1-1.8-.1-3.6-.2-5.3-.1-1.7-.2-3.4-.7-4.9-.4-1.6-1.2-2.9-1.9-4.1-.8-1.2-1.6-2.1-2.4-3-1.5-1.7-2.8-3-3.6-3.9-.8-.9-1.3-1.4-1.3-1.4-.1-.1-.2-.2-.3-.4.7.9 1.6 1.9 2.5 3 1.8 2 3.9 4.2 5.3 6.5.7 1.2 1.2 2.5 1.5 3.6.3 1.2.4 2.3.4 3.2.1.9.1 1.7.1 2.2v.8c0-.2 0-.9-.1-2.3s-.2-3.2-.8-5c0 0-.2-.7-.8-1.6-.5-1-1.4-2.2-2.4-3.4-2.1-2.4-4.7-5-5.8-6.4-.3-.4-.7-.9-1.3-1.7-.5-.8-1-1.9-1.1-3.2-.1-1.3.3-2.7.9-4.1.6-1.4 1.5-2.7 2.3-4.1.9-1.3 1.6-2.8 2.3-4.1.4-.7.8-1.3 1.3-1.8.4-.6 1-1 1.6-1.2l.5-.1h.1v-.2c-.2 0-.3 0-.5.1-1 .3-1.8 1.2-2.4 2.1-1.2 1.8-2.2 3.9-3.6 5.9-.3.5-.7 1-1 1.6-.3.5-.6 1.1-.9 1.7-.5 1.2-1 2.4-1 3.7-.1 1.3.3 2.6 1 3.7.6 1.1 1.4 2 2.1 2.9 1.5 1.7 2.9 3.2 4.1 4.6l-.1.1c2.4 2.7 3.8 5 4.2 7.6.5 2.6.4 5.3.5 9 0 0 0 1.4.1 3.6s.4 5.3 1.1 8.7c.4 1.7.9 3.4 1.6 5.2.8 1.7 1.8 3.4 3.1 4.7 1.3 1.3 3 2.3 4.7 2.7.4.1.9.2 1.4.2.5 0 .9-.1 1.3-.2.8-.2 1.5-.5 2.1-.8 0 0 .2-.1.7-.3.5-.2 1.2-.5 2.2-.8 1-.3 2.4-.5 4 .1 1.5.5 2.8 2.5 4.3 4.7.9 1.5 1.4 2.3 1.6 2.7l.2.4c.5.8 1.1 1.8 1.7 2.8.3.5.7 1.1 1.1 1.7.4.6.9 1.2 1.3 1.6 1.8 2 3.7 4 5 5.3 2.6 2.5 5.5 4.9 8.8 6.6 3.3 1.7 7.1 2.6 10.8 2.4 1.9 0 3.7-.3 5.1-.5 1.4-.2 2.3-.5 2.3-.5.9-.2 2.1-.7 3.2-1.5 1.1-.9 1.7-2.3 1.9-3.5.2-1.2 0-2.3 0-3.1 0-.4-.1-.7-.1-.9v-.3c-.1-.9-.4-1.9-.8-2.7-.4-.9-.9-1.6-1.4-2.4-1-1.4-2.2-2.6-3.1-3.9-.9-1.3-1.5-2.6-1.7-4-.2-1.4.1-2.8.5-4.2.4-1.3 1.1-2.5 2.1-3.2 1-.8 2.3-1.2 3.6-1.5 1.3-.3 2.7-.5 4.1-.9.7-.2 1.4-.5 2-.7l1.9-.9c3.3-1.6 6.6-3.6 9.5-6.3 2.9-2.7 5.3-5.9 7.1-9.6.5-.9.9-1.9 1.3-2.8l1.1-2.9c.7-1.9 1.4-3.9 2-5.9.6-2 1.1-4.1 1.2-6.2.4-1.1.4-2.2.3-3.3zm-116.4-86l.6-.9c-.2.4-.4.6-.6.9zm69.8 14.9c.5.1.9.3 1.3.5l.2.1c-.7-.3-1.4-.5-2.2-.7.3.1.5.1.7.1zM965.6 5.5c-1.3 1.1-2.8 2.8-4.2 4.8 1.5-2 3.2-3.9 5.1-5.4-.2.1-.4.3-.5.3l-.4.3zM979.8.3c-1.8-.3-3.7-.3-5.6 0-1.9.3-3.6 1.1-5.2 2-3.2 1.9-5.8 4.7-7.8 7.8-1.9 3.1-3.4 6.7-3.4 10.5v.7l.1.7.2 1.4.4 1.6.1.3v.1h.1l.6.1.7.1c1.7.3 3.2 1.2 4.4 2.4 2.4 2.5 3.9 5.9 5 9.3.3.9.5 1.7.7 2.6.2.9.3 1.7.3 2.6.1 1.8-.1 3.6-.2 5.4-.3 3.6-.8 7.2-.8 10.9 0 1.8.2 3.7.6 5.5.5 1.8 1.3 3.6 2.6 5-1.3-1.5-2-3.2-2.5-4.9-.4-1.7-.6-3.4-.6-5.1-.1-3.3.3-6.5.6-9.7.3-3.1.7-6.3.2-9.4-.7-3.1-1.8-6.4-3.6-9.4l-.2-.4c-.2-.4-.7-1.2-1.9-2.4-.9-.9-2-1.7-3.2-2.1l-.9-.3c-.2-.1-.3-.1-.5-.1l-.6-.1c-.3-.1-.6.1-.6-.3l-.2-.7-.3-1.1c-.6-2.9-.1-5.8.9-8.5s2.5-5.2 4.3-7.3c1.8-2.1 3.9-4 6.2-5.3 2.3-1.4 5-2 7.4-2 2.5 0 4.8.5 6.8 1.1 2.5.8 4.7 1.8 6.5 2.8-.1 0-.2-.1-.2-.1-3.2-1.8-6.7-3.2-10.4-3.7z"/></g></g></g><path d="M946 70.5c1.8 5.6 11.5 4.9 11.5-1.9 0-3.5-2.3-6.7-7.1-5.9-3 .5-5.7 3.7-4.4 7.8z" fill="#F2A391"/></g></svg>